# xmcd
# Copyright (C) 1995-1998 Ti Kan
#
# Track frame offsets:
#       150
#       14464
#       27479
#       43466
#       63144
#       78585
#       93894
#       110064
#       130384
#       152882
#       167002
#       192729
#
# Disc length: 2942 seconds
#
# Revision: 0
# Processed by: cddbd v1.5.2PL0 Copyright (c) Steve Scherf et al.
# Submitted via: CD-Import v1.0
#
DISCID=a80b7c0c
DTITLE=The Freak And The Teacups - Where Is My Tea
DYEAR=09
DGENRE=
TTITLE0=(Riding With The Freak On His) Brand-New Bike
TTITLE1=Trains
TTITLE2=Busstation
TTITLE3=Shoes And Sugar
TTITLE4=I Want My Earl Grey
TTITLE5=Lightbulb
TTITLE6=Everybody Likes Coffee
TTITLE7=Freak On The Other Side Of The Street
TTITLE8=Take Your Time
TTITLE9=Moutains Can't Talk
TTITLE10=Why Not ?
TTITLE11=The Station
EXTD=
EXTT0=
EXTT1=
EXTT2=
EXTT3=
EXTT4=
EXTT5=
EXTT6=
EXTT7=
EXTT8=
EXTT9=
EXTT10=
EXTT11=
PLAYORDER=
